# xmcd CD database file
#
# Track frame offsets:
#	182
#	15170
#	26992
#	41177
#	55757
#	69545
#	83350
#	98825
#	112810
#	124635
#	138415
#	153115
#	164650
#	178322
#	192200
#	204385
#
# Disc length: 2888 seconds
#
# Revision: 0
# Processed by: cddbd v1.5.2PL0 Copyright (c) Steve Scherf et al.
# Submitted via: CDex 1.70beta1
#
DISCID=cd0b4610
DTITLE=jack Hylton and His Orchestra - Nights On The Town 30s Style
DYEAR=1900
DGENRE=British Dance Bands
TTITLE0=Breakaway
TTITLE1=On Her Doorstep Last Night
TTITLE2=Just As We Used To Do
TTITLE3=Springtime Reminds Me Of You
TTITLE4=That's Where The South Begins
TTITLE5=Maggies Cold
TTITLE6=Ro-Ro-Rolling Along
TTITLE7=Dance Of The Raindrops
TTITLE8=Steppin' Out
TTITLE9=Around The Corner
TTITLE10=Harmonica Harry
TTITLE11=Great Day
TTITLE12=Punch And Judy Show
TTITLE13=Speaking Of Kentucky Days
TTITLE14=Nobody's Using It Now
TTITLE15=Little White Lies
EXTD=
EXTT0=
EXTT1=
EXTT2=
EXTT3=
EXTT4=
EXTT5=
EXTT6=
EXTT7=
EXTT8=
EXTT9=
EXTT10=
EXTT11=
EXTT12=
EXTT13=
EXTT14=
EXTT15=
PLAYORDER=
